:SAMPLES-PER-SECOND 30
:FRAME-RANGE 1-3358
:FULLY-SPECIFIED
:DEGREES
735
root  24.1019 39.2307 -26.3892 3.68352 30.8421 6.60489
RightUpLeg  -21.3161 -6.81003 -9.65927
RightLeg  7.08262 -8.69435 -2.08756
RightFoot  1.51061 -1.08487 9.7024
RightToes  -5.8209e-011 0 -3.6325e-017
Spine  10.644 2.9809 8.74385
Spine1  0.151386 6.52931 -13.0479
HEad  7.21765 -20.5871 2.90726
LeftShoulder1  1.37735 -0.786882 -25.9361
LeftArm  17.7193 12.8464 -25.3817
LeftForeArm  -2.33911 -16.483 -10.4925
LeftHand  0.29551 -2.19404 -4.35368
RightShoulder  7.12285 31.8754 12.8166
RightArm  -13.1049 34.1251 10.8172
RightForeArm  -30.9883 27.4205 7.33085
RightHand  0.667948 -0.359166 15.4748
LeftUpLeg  -4.4853 9.17226 -5.70713
LeftLeg  18.5337 2.13481 0.0499307
LeftFoot  -13.8347 0.0607903 -1.01971
LeftToes  -4.03819e-010 -8.71445e-011 8.52097e-011
736
root  24.6473 39.0678 -24.931 2.54231 31.0046 6.1925
RightUpLeg  -21.0302 -7.02539 -8.70507
RightLeg  8.09019 -6.2152 -1.53906
RightFoot  4.77217 -1.18558 8.592
RightToes  -5.8209e-011 0 -3.6325e-017
Spine  9.96592 2.97124 9.4034
Spine1  0.897275 6.33997 -12.1745
HEad  9.26614 -20.0864 2.20118
LeftShoulder1  1.30758 -0.554763 -26.0547
LeftArm  16.9685 15.2216 -23.786
LeftForeArm  -2.02138 -15.2901 -11.5243
LeftHand  0.316058 -2.03683 -4.78209
RightShoulder  7.95495 30.1508 16.6681
RightArm  -8.50085 32.6922 12.8589
RightForeArm  -30.9678 33.3415 8.9129
RightHand  0.371398 -1.33949 10.953
LeftUpLeg  -1.25807 9.76197 -4.52521
LeftLeg  19.4137 1.18981 0.56777
LeftFoot  -16.2557 0.0136864 -1.95208
LeftToes  -4.03819e-010 -8.71445e-011 8.52097e-011
737
root  25.1663 38.7441 -23.5167 0.88002 30.6859 4.787
RightUpLeg  -22.1159 -4.32595 -7.54153
RightLeg  15.8858 -5.30632 -2.05246
RightFoot  5.45916 -0.752602 5.34586
RightToes  -5.8209e-011 0 -3.6325e-017
Spine  10.1116 2.72299 11.2203
Spine1  1.20082 6.03804 -11.3496
HEad  10.817 -18.9268 1.04651
LeftShoulder1  1.17946 -0.151291 -26.1031
LeftArm  17.0912 18.6331 -22.4418
LeftForeArm  -2.64172 -14.9451 -11.8816
LeftHand  0.381096 -2.2235 -5.64071
RightShoulder  8.53224 28.7704 19.7129
RightArm  -1.00009 31.9916 15.3796
RightForeArm  -28.1889 35.3923 9.40937
RightHand  0.289852 -1.57589 9.19017
LeftUpLeg  0.46478 9.95605 -2.30159
LeftLeg  23.293 1.45954 1.02801
LeftFoot  -19.1368 -0.111507 -3.31976
LeftToes  -4.03819e-010 -8.71445e-011 8.52097e-011
738
root  25.6434 38.3447 -22.2519 -1.0782 30.145 2.70833
RightUpLeg  -22.9164 -3.45669 -5.46215
RightLeg  23.2613 -5.5891 -2.84839
RightFoot  1.97188 -0.535314 4.69898
RightToes  -5.8209e-011 0 -3.6325e-017
Spine  10.874 2.25579 13.5034
Spine1  1.56886 5.74773 -10.4558
HEad  11.4819 -17.3926 -0.219466
LeftShoulder1  1.05842 0.278568 -26.665
LeftArm  14.9488 21.4911 -21.9354
LeftForeArm  -0.894896 -13.6154 -12.7729
LeftHand  0.407698 -2.18052 -6.08479
RightShoulder  9.02375 28.4928 21.5981
RightArm  6.43301 29.9325 17.5931
RightForeArm  -26.9363 35.4639 9.37872
RightHand  0.280181 -1.06036 7.73807
LeftUpLeg  -0.91955 10.2294 0.641608
LeftLeg  32.7083 2.39356 2.01271
LeftFoot  -20.2803 -0.580111 -8.96053
LeftToes  -4.03819e-010 -8.71445e-011 8.52097e-011
739
root  26.0231 38.0144 -21.1532 -2.51122 30.2203 0.752289
RightUpLeg  -23.0168 -4.84145 -3.30212
RightLeg  28.2996 -4.14495 -2.65582
RightFoot  -2.42603 -0.369898 4.5293
RightToes  -5.8209e-011 0 -3.6325e-017
Spine  11.6854 1.79238 15.4569
Spine1  2.28143 5.47388 -8.90882
HEad  11.6138 -16.4191 -0.657586
LeftShoulder1  1.03806 0.384905 -27.1448
LeftArm  11.5658 23.1061 -22.6696
LeftForeArm  1.75262 -11.4743 -13.9828
LeftHand  0.392855 -1.81657 -6.18822
RightShoulder  9.78667 27.9559 24.6707
RightArm  13.5831 27.8606 18.738
RightForeArm  -30.6639 32.9515 8.78946
RightHand  0.163369 -0.623298 4.0955
LeftUpLeg  -5.14165 11.4402 3.49525
LeftLeg  44.3942 3.84014 4.42199
LeftFoot  -15.4524 -0.436733 -14.6691
LeftToes  -4.03819e-010 -8.71445e-011 8.52097e-011
740
root  26.4057 37.735 -20.1831 -3.25368 30.1119 -1.03581
RightUpLeg  -23.1612 -6.13941 -1.4437
RightLeg  31.8196 -2.87793 -2.18309
RightFoot  -6.13886 -0.257377 4.74217
RightToes  -5.8209e-011 0 -3.6325e-017
Spine  12.4147 1.55285 17.8392
Spine1  2.87859 5.62663 -8.13333
HEad  11.6331 -16.1 -0.854158
LeftShoulder1  1.06785 0.335075 -27.575
LeftArm  9.69931 23.5556 -24.1414
LeftForeArm  4.36964 -9.49423 -14.9653
LeftHand  0.429996 -1.93243 -6.66825
RightShoulder  10.7144 27.319 28.4682
RightArm  19.524 25.9636 18.6484
RightForeArm  -33.1317 28.3059 7.63039
RightHand  0.0425373 0.852065 0.707748
LeftUpLeg  -10.9691 12.6476 5.17398
LeftLeg  54.4912 4.88018 7.79321
LeftFoot  -6.35488 0.41525 -8.65177
LeftToes  -4.03819e-010 -8.71445e-011 8.52097e-011
